<?xml version="1.0" encoding="utf-8"?>
<!-- Generator: Adobe Illustrator 23.0.1, SVG Export Plug-In . SVG Version: 6.00 Build 0)  -->
<svg version="1.1" id="Layer_1" xmlns="http://www.w3.org/2000/svg" xmlns:xlink="http://www.w3.org/1999/xlink" x="0px" y="0px"
	 viewBox="0 0 196 195.84" style="enable-background:new 0 0 196 195.84;" xml:space="preserve">
<style type="text/css">
	.st0{fill:#F2F2F2;}
	.st1{fill:#FFFFFF;stroke:#323537;stroke-miterlimit:10;}
	.st2{fill:#5E7EA7;}
	.st3{fill:#FFFFFF;}
</style>
<circle class="st0" cx="98.12" cy="97.75" r="88.66"/>
<path class="st1" d="M74.8,114.71L119.93,130l50.97-35.36L80.94,75.76l-50.66,27.27l32.55,8.69
	C62.82,111.72,68.06,121.43,74.8,114.71z"/>
<path class="st2" d="M67.88,113.25c0,0,4.03-3.88,17.28-0.98c1.42,0.31,2.82,0.74,4.16,1.29c2.26,0.93,6.02,2.67,10.07,5.39
	c4.35,2.93,16.08,4.8,17.88,7.02l46.19-32.92c0,0-6.94-1.93-10.01-5.5c0,0-4.74-6.11-11.54-9.32c-6.8-3.21-19.86-2.44-19.86-2.44
	l-3.86,1.59c0,0-6.98-6.67-18.5-8.19s-30.43,8.79-30.43,8.79L31.06,98.2c0,0,1.82,3.74,7.58,4.65c4.49,0.71,10.64,1.11,13.13,1.25
	c0.6,0.03,1.2,0.04,1.8,0.03C56.04,104.08,64.62,104.55,67.88,113.25z"/>
<path class="st3" d="M116.62,120.17l39.64-28.47c0,0-6.93-5.31-9.29-8.01c-3.82-4.36-9.88-5.54-9.88-5.54s-8.99-1.78-14.23-1.09
	c-5.24,0.69-52.17,30.09-52.17,30.09s12.62-2.78,21.43,0.75C99.54,110.89,106.64,117.7,116.62,120.17z"/>
<path class="st3" d="M69.15,106.65l47.02-28.66c0,0-12.48-12.97-32.87-4.36S36.16,97.1,36.16,97.1s15.05-0.5,19.9,0.5
	C60.92,98.59,68.17,102.05,69.15,106.65z"/>
</svg>
