<?xml version="1.0" encoding="utf-8"?>
<!-- Generator: Adobe Illustrator 23.0.1, SVG Export Plug-In . SVG Version: 6.00 Build 0)  -->
<svg version="1.1" id="Face" xmlns="http://www.w3.org/2000/svg" xmlns:xlink="http://www.w3.org/1999/xlink" x="0px" y="0px"
	 viewBox="0 0 426 642" style="enable-background:new 0 0 426 642;" xml:space="preserve">
<style type="text/css">
	.st0{fill:none;stroke:#000000;stroke-miterlimit:10;}

		#Nose, #Hair {
		stroke-dasharray: 1000;
		stroke-dashoffset: 1000;
		-webkit-animation: dash 3s linear forwards;
		animation: dash 3s linear forwards;
		}

		#Lips, #Eye {
		stroke-dasharray: 2000;
		stroke-dashoffset: 2000;
		-webkit-animation: dash 5s linear forwards;
		animation: dash 5s linear forwards;
		}

		@keyframes dash {
		to {
			stroke-dashoffset: 0;
		}
		}
</style>
<path id="Nose" class="st0" d="M245.5,455.5c0,0-18,31-36,46c-9.3,7.8-15.9,13.4-20.2,17c-5.4,4.6-11.2,8.7-17.4,12.2
	c-7.5,4.2-15.4,7.8-23.4,8.8c-6.4,0.8-13.2-0.5-18.1-1.1c-4.9-0.6-9.7-1.9-14-4.2c-5.7-3-11.8-7.5-15.9-13.7c-6.2-9.3-18-44-28-60
	c0,0-21-64-25-73s-12-33-10-50s3-29,1-34s-9-12-10-24c-0.8-9.4,10.1-6.5,14.9-4.8c1.6,0.6,3.2,1.1,4.9,1.5
	c10.4,2.7,46.9,13.8,50.3,34.3c3.4,20.1,0.4,40.3-0.7,46.2c-0.2,1.1-0.5,2.1-0.8,3.2l-8.8,26.3c-0.4,1.2-0.9,2.5-1.5,3.6
	c-2,4-6.8,16.1-0.3,27.6c7.3,12.9,13.8,13.9,24.9,14.8c2.1,0.2,4.2,0.1,6.3-0.3c6.1-1,18.5-3.2,17.7-5.5c-1-3-14-5-19,0"/>
<path id="Lips" class="st0" d="M300.5,539.5c0,0-24-9-40-56s2-121,2-121c-59-53-35-144-36-172s-24-92-52-135s-85-48-129-24
	s-47,96,7,89s65,21,60,16s-13-8-13-8c-47-7-60,28-70,46s-5,61-3,73s0,22,0,22s-6,58,5,95c7.5,25.3,14.6,45.4,18.3,55.6
	c1.7,4.7,3.9,9.3,6.5,13.6l16.2,26.8c0,0,15-2,17,6s8,24,16,26c7.9,2,21.6,5.9,30.6,1.2c0.3-0.1,0.6-0.3,0.9-0.4
	c3.3-1.3,25.2-10,34.9-17.3c0.3-0.2,0.2-0.7-0.1-0.8c-2.6-0.9-11.2-0.3-20.7,0.2c-0.9,0-1.9,0.1-2.8,0c-4-0.2-16.2-0.6-23.7,1.1
	c-7,1.6-14.7-3-17.7-5c-1.1-0.8-2.3-1.4-3.5-2c-3.6-1.6-10.6-7.6-14.6-8.7c-0.3-0.1-0.3-0.5,0-0.5c2.6-0.6,8.8-1.9,13.7-1.9
	c1.7,0,3.4,0.6,4.6,1.8c1.6,1.5,4.3,3.4,7.5,3.4c3,0,5.3-0.7,6.7-1.3c1-0.4,2-0.5,3-0.2c5.6,1.7,24.1,6.8,43.3,8.5"/>
<path id="Hair" class="st0" d="M323.5,635.5c0,0-30-56,8-108s0-210-48-297c0,0-45-76-82-98s-100-21-100-21"/>
<path id="Eye" class="st0" d="M420.5,523.5c0,0-60-145-44-235s-5-174-158-249C98.6-19.3,38.2,30.1,17.8,54.2
	c-5.9,7-9.6,15.6-10.6,24.8c-1.5,15.2-0.4,39.4,19.3,50.6c0,0-22.4,129.2,13,187c0,0,16,22,42,8c0,0,8.4,1.5,11.4,1.5l1.6,0.5
	c0,0-6-6-22-6s-28-2-28-2s-3-4,0-11c0,0,22,3,47,14"/>
</svg>
