<?xml version="1.0" encoding="utf-8"?>
<!-- Generator: Adobe Illustrator 23.0.1, SVG Export Plug-In . SVG Version: 6.00 Build 0)  -->
<svg version="1.1" id="Layer_3" xmlns="http://www.w3.org/2000/svg" xmlns:xlink="http://www.w3.org/1999/xlink" x="0px" y="0px"
	 viewBox="0 0 426 642" style="enable-background:new 0 0 426 642;" xml:space="preserve">
<style type="text/css">
	.st0{fill:none;stroke:#000000;stroke-miterlimit:10;}

</style>
<path class="st0" d="M245.5,455.5c0,0-18,31-36,46c-9.3,7.75-15.93,13.36-20.17,16.98c-5.4,4.61-11.21,8.71-17.38,12.21
	c-7.5,4.25-15.45,7.81-23.45,8.81c-6.41,0.8-13.2-0.54-18.06-1.11c-4.9-0.58-9.69-1.92-14.04-4.23c-5.66-3.01-11.81-7.53-15.9-13.66
	c-6.2-9.3-18-44-28-60c0,0-21-64-25-73s-12-33-10-50s3-29,1-34s-9-12-10-24c-0.78-9.41,10.12-6.52,14.86-4.84
	c1.6,0.57,3.22,1.08,4.87,1.51c10.36,2.73,46.85,13.75,50.27,34.32c3.36,20.15,0.37,40.3-0.67,46.25c-0.19,1.09-0.46,2.15-0.81,3.19
	l-8.77,26.31c-0.41,1.24-0.9,2.45-1.48,3.63c-1.97,4.01-6.83,16.15-0.27,27.63c7.35,12.86,13.85,13.91,24.93,14.77
	c2.12,0.16,4.24,0.08,6.34-0.26c6.09-0.97,18.49-3.24,17.73-5.51c-1-3-14-5-19,0"/>
<path class="st0" d="M300.5,539.5c0,0-24-9-40-56s2-121,2-121c-59-53-35-144-36-172s-24-92-52-135s-85-48-129-24s-47,96,7,89
	s65,21,60,16s-13-8-13-8c-47-7-60,28-70,46s-5,61-3,73s0,22,0,22s-6,58,5,95c7.51,25.27,14.56,45.41,18.27,55.64
	c1.72,4.73,3.89,9.28,6.5,13.58L72.5,460.5c0,0,15-2,17,6s8,24,16,26c7.88,1.97,21.57,5.88,30.58,1.23
	c0.28-0.14,0.55-0.28,0.85-0.39c3.32-1.3,25.23-10,34.88-17.29c0.3-0.23,0.22-0.71-0.15-0.82c-2.65-0.85-11.21-0.29-20.66,0.18
	c-0.95,0.05-1.89,0.07-2.83,0.03c-4.03-0.19-16.23-0.58-23.66,1.07c-7.03,1.56-14.67-2.98-17.68-5.04c-1.11-0.76-2.3-1.41-3.53-1.96
	c-3.56-1.59-10.59-7.62-14.64-8.72c-0.29-0.08-0.28-0.49,0.01-0.55c2.56-0.58,8.85-1.89,13.73-1.93c1.72-0.01,3.37,0.64,4.64,1.79
	c1.61,1.46,4.34,3.41,7.46,3.41c3.03,0,5.33-0.74,6.67-1.32c0.96-0.42,2.03-0.46,3.04-0.17c5.59,1.66,24.09,6.81,43.29,8.48"/>
<path class="st0" d="M323.5,635.5c0,0-30-56,8-108s0-210-48-297c0,0-45-76-82-98s-100-21-100-21"/>
<path class="st0" d="M420.5,523.5c0,0-60-145-44-235s-5-174-158-249C98.56-19.3,38.23,30.07,17.76,54.15
	c-5.95,7-9.65,15.62-10.58,24.77c-1.54,15.23-0.42,39.4,19.32,50.58c0,0-22.38,129.17,13,187c0,0,16,22,42,8
	c0,0,8.42,1.51,11.42,1.51l1.58,0.49c0,0-6-6-22-6s-28-2-28-2s-3-4,0-11c0,0,22,3,47,14"/>
</svg>
