<?xml version="1.0" encoding="utf-8"?>
<!-- Generator: Adobe Illustrator 23.0.0, SVG Export Plug-In . SVG Version: 6.00 Build 0)  -->
<svg version="1.1" id="Layer_1" xmlns="http://www.w3.org/2000/svg" xmlns:xlink="http://www.w3.org/1999/xlink" x="0px" y="0px"
	 viewBox="0 0 1369 137" style="enable-background:new 0 0 1369 137;" xml:space="preserve">
<style type="text/css">
	.st0{fill:none;stroke:#FFBD71;stroke-width:2;stroke-miterlimit:10;}
</style>
<path id="line_5_" class="st0" d="M1368.66,17.3c-71.03,55.48-142.68,47.42-173.96,39.96c-10.85-2.59-22.28-0.07-30.96,6.92
	l-62.65,20.17c-12.57,10.12-46.69-7.79-59.86-17.1c-22.07-15.6-68.41,22.81-102.62,31.36c-118.34,29.58-75.68,29.19-213.8,11.4
	C624.62,97.11,567.35,92.97,499.6,64.4C369.83,9.67,375.38,82.41,296.57,57.56c-48.09-15.17-103.44,19.59-141.9,46.75
	c-54.36,38.4-99.04,3.45-119.73-2.85c-20.69-6.3-35.32,11.8-35.32,11.8"/>
</svg>
