<?xml version="1.0" encoding="utf-8"?>
<!-- Generator: Adobe Illustrator 23.0.0, SVG Export Plug-In . SVG Version: 6.00 Build 0)  -->
<svg version="1.1" id="Layer_1" xmlns="http://www.w3.org/2000/svg" xmlns:xlink="http://www.w3.org/1999/xlink" x="0px" y="0px"
	 viewBox="0 0 1369 137" style="enable-background:new 0 0 1369 137;" xml:space="preserve">
<style type="text/css">
	.st0{fill:none;stroke:#FFBD71;stroke-width:2;stroke-miterlimit:10;}
</style>
<path id="line_1_" class="st0" d="M1368.47,4.02c-71.03,55.48-142.68,47.42-173.96,39.96c-10.85-2.59-22.28-0.07-30.96,6.92
	l-62.65,20.17c-12.57,10.12-46.69-7.79-59.86-17.1c-22.07-15.6-68.42,22.81-102.62,31.36c-118.34,29.58-75.68,29.19-213.8,11.4
	c-100.19-12.9-157.46-17.04-225.2-45.61C369.64-3.6,375.19,69.13,296.38,44.28c-48.09-15.17-103.44,19.59-141.9,46.75
	c-54.36,38.4-99.04,3.45-119.73-2.85s-35.32,11.8-35.32,11.8"/>
</svg>
