<?xml version="1.0" encoding="utf-8"?>
<!-- Generator: Adobe Illustrator 23.0.1, SVG Export Plug-In . SVG Version: 6.00 Build 0)  -->
<svg version="1.1" id="Layer_1" xmlns="http://www.w3.org/2000/svg" xmlns:xlink="http://www.w3.org/1999/xlink" x="0px" y="0px"
	 viewBox="0 0 1360 160.6" style="enable-background:new 0 0 1360 160.6;" xml:space="preserve">
<style type="text/css">
	.st0{fill:none;stroke:#A3B7D0;stroke-miterlimit:10;}

	#line {
		stroke-dasharray: 2000;
		stroke-dashoffset: 2000;
		-webkit-animation: dash 7s linear forwards;
		animation: dash 7s infinite linear forwards;
	}

	@keyframes dash {
		50% {
			stroke-dashoffset: 0;
		}
		100%{
			stroke-dashoffset: 0;
		}
	}
	
</style>
<path id="line" class="st0" d="M-5.6,10.5c0,0,14,18.7,35,13.2c21.1-5.4,67.4-38.5,120.6,2.1c37.6,28.7,91.9,65.7,140.9,52.5
	c80.3-21.6,71.8,50.8,204.6,1.5c69.3-25.8,127.1-27.6,228.4-36.3c139.7-12.1,96.8-14.3,214.7,20.2c34.1,9.9,79.1,50.2,102,35.5
	c12.8-8.3,44.7-23.4,58.6-16.2c3.7,1.9,7.5,3.4,11.3,4.9l48.2,17.6c3,1.1,5.7,2.6,8.3,4.4c8,5.5,17.9,7.5,27.6,5.6
	c31.8-6.2,104.2-11.3,173.4,47.1"/>
</svg>
