<?xml version="1.0" encoding="utf-8"?>
<!-- Generator: Adobe Illustrator 23.0.1, SVG Export Plug-In . SVG Version: 6.00 Build 0)  -->
<svg version="1.1" id="Layer_1" xmlns="http://www.w3.org/2000/svg" xmlns:xlink="http://www.w3.org/1999/xlink" x="0px" y="0px"
	 viewBox="0 0 1360 156.2" style="enable-background:new 0 0 1360 156.2;" xml:space="preserve">
<style type="text/css">
	.st0{fill:none;stroke:#5E7EA7;stroke-miterlimit:10;}
</style>
<path id="line_1_" class="st0" d="M-5.4,0.9c69.1,57.8,141.1,52.5,172.7,46.2c9.9-1.9,20,0.2,28.1,6c2.1,1.5,4.5,2.7,6.9,3.6
	l53.8,19.4c2,0.7,3.9,1.6,5.6,2.6c13.5,7.9,45.9-7.6,58.9-16c22.7-14.7,67.7,25.2,101.6,35c117.4,33.8,74.7,31.8,213.7,19.3
	c100.8-9.1,158.3-11,227.2-36.9c131.9-49.5,123.7,22.5,203.5,0.8c48.7-13.3,102.9,23.3,140.4,51.8c53,40.2,99,7.1,120,1.6
	c20.9-5.5,34.9,13,34.9,13"/>
</svg>
