<?xml version="1.0" encoding="utf-8"?>
<!-- Generator: Adobe Illustrator 23.0.0, SVG Export Plug-In . SVG Version: 6.00 Build 0)  -->
<svg version="1.1" id="Layer_1" xmlns="http://www.w3.org/2000/svg" xmlns:xlink="http://www.w3.org/1999/xlink" x="0px" y="0px"
	 viewBox="0 0 1369 137" style="enable-background:new 0 0 1369 137;" xml:space="preserve">
<style type="text/css">
	.st0{fill:none;stroke:#FFBD71;stroke-width:2;stroke-miterlimit:10;}
</style>
<path id="line_3_" class="st0" d="M1369.45,85.97c-71.03,55.48-142.68-46.83-173.96-54.28c-10.85-2.59-93.61,27.09-93.61,27.09
	c-39.04,5.61-46.69-7.79-59.86-17.1c-22.07-15.6-78.13-17.99-112.34-9.44c-118.34,29.58-74.79,3.58-204.08,52.2
	c-94.55,35.56-157.46-17.04-225.2-45.61c-129.77-54.73-124.22,18.01-203.03-6.84c-48.09-15.17-103.44,19.59-141.9,46.75
	c-54.36,38.4-99.04,3.45-119.73-2.85S0.43,87.69,0.43,87.69"/>
</svg>
