<?xml version="1.0" encoding="utf-8"?>
<!-- Generator: Adobe Illustrator 23.0.1, SVG Export Plug-In . SVG Version: 6.00 Build 0)  -->
<svg version="1.1" id="Layer_1" xmlns="http://www.w3.org/2000/svg" xmlns:xlink="http://www.w3.org/1999/xlink" x="0px" y="0px"
	 viewBox="0 0 1360 301" style="enable-background:new 0 0 1360 301;" xml:space="preserve">
<style type="text/css">
	.st0{fill:none;stroke:#5E7EA7;stroke-miterlimit:10;}
</style>
<path id="line" class="st0" d="M1363,196c-71.03-55.48-142.68-47.42-173.96-39.96c-10.85,2.59-22.28,0.07-30.96-6.92l-84.94-68.37
	c-12.57-10.12-30.27-10.51-43.45-1.2c-22.07,15.6-64.94,31.34-136.24,3.79C779.66,39.37,778.14-6.86,640.02,10.93
	c-100.19,12.9-92.59,43.84-160.33,72.41c-129.77,54.73-109.97,47.56-188.78,72.41c-48.09,15.17-110.88-3.85-147.4,25.86
	C52.74,255.46,53,280.2,32.32,286.5S-3,274.7-3,274.7"/>
</svg>
