<?xml version="1.0" encoding="utf-8"?>
<!-- Generator: Adobe Illustrator 23.0.1, SVG Export Plug-In . SVG Version: 6.00 Build 0)  -->
<svg version="1.1" id="Layer_1" xmlns="http://www.w3.org/2000/svg" xmlns:xlink="http://www.w3.org/1999/xlink" x="0px" y="0px"
	 viewBox="0 0 1360 196" style="enable-background:new 0 0 1360 196;" xml:space="preserve">
<style type="text/css">
	.st0{fill:none;stroke:#5E7EA7;stroke-miterlimit:10;}

	#line {
		stroke-dasharray: 2000;
		stroke-dashoffset: -2000;
		animation: dash 5s linear forwards;
	}

	@keyframes dash {
		to {
			stroke-dashoffset: 0;
		}
	}

</style>
<path id="line" class="st0" d="M1365.58,41.71c-65.2,62.72-147.68-31.4-179.76-35.49c-11.12-1.42-90.78,36.89-90.78,36.89
	c-38.46,9.73-47.53-2.79-61.69-10.65c-23.73-13.16-80.06-9.59-113.38,2.55c-115.25,42-74.44,11.51-198.64,73.6
	c-90.83,45.41-159.31-0.21-230.1-21.42c-135.6-40.63-122.37,31.11-203.82,14.78C237.7,92.01,186,132.45,150.41,163.55
	c-50.32,43.97-98.71,13.96-120.07,9.89s-34.08,15.49-34.08,15.49"/>
</svg>
