<?xml version="1.0" encoding="utf-8"?>
<!-- Generator: Adobe Illustrator 23.0.0, SVG Export Plug-In . SVG Version: 6.00 Build 0)  -->
<svg version="1.1" id="Layer_1" xmlns="http://www.w3.org/2000/svg" xmlns:xlink="http://www.w3.org/1999/xlink" x="0px" y="0px"
	 viewBox="0 0 1369 306" style="enable-background:new 0 0 1369 306;" xml:space="preserve">
<style type="text/css">
	.st0{fill:none;stroke:#FFBD71;stroke-width:2;stroke-miterlimit:10;}
</style>
<path id="line" class="st0" d="M1367,199c-71.03-55.48-142.68-47.42-173.96-39.96c-10.85,2.59-22.28,0.07-30.96-6.92l-84.94-68.37
	c-12.57-10.12-30.27-10.51-43.45-1.2c-22.07,15.6-64.94,31.34-136.24,3.79C783.66,42.37,782.14-3.86,644.02,13.93
	c-100.19,12.9-92.59,43.84-160.33,72.41c-129.77,54.73-109.97,47.56-188.78,72.41c-48.09,15.17-110.88-3.85-147.4,25.86
	C56.74,258.46,57,283.2,36.32,289.5S1,277.7,1,277.7"/>
</svg>
