<?xml version="1.0" encoding="utf-8"?>
<!-- Generator: Adobe Illustrator 23.0.1, SVG Export Plug-In . SVG Version: 6.00 Build 0)  -->
<svg version="1.1" id="Layer_1" xmlns="http://www.w3.org/2000/svg" xmlns:xlink="http://www.w3.org/1999/xlink" x="0px" y="0px"
	 viewBox="0 0 1360 160.56" style="enable-background:new 0 0 1360 160.56;" xml:space="preserve">
<style type="text/css">
	.st0{fill:none;stroke:#455a72;stroke-miterlimit:10;}

	#line {
		stroke-dasharray: 2000;
		stroke-dashoffset: 2000;
		-webkit-animation: dash 5s linear forwards;
		animation: dash 5s infinite linear forwards;
	}

	@keyframes dash {
		40% {
			stroke-dashoffset: 0;
		}
		100%{
			stroke-dashoffset: 0;
		}
	}
</style>
<path id="line" class="st0" d="M-5.58,10.53c0,0,13.99,18.69,35.05,13.24c21.08-5.44,67.45-38.54,120.58,2.06
	c37.58,28.72,91.86,65.71,140.86,52.53c80.3-21.6,71.76,50.84,204.56,1.48c69.32-25.78,127.11-27.56,228.44-36.35
	c139.69-12.11,96.79-14.26,214.65,20.15c34.07,9.94,79.14,50.21,101.98,35.53c13.63-8.76,48.69-25.26,60.93-14.64l62.21,22.71
	c8.46,7.34,19.85,10.33,30.87,8.18c31.77-6.16,104.19-11.28,173.41,47.06"/>
</svg>
