<?xml version="1.0" encoding="utf-8"?>
<!-- Generator: Adobe Illustrator 23.0.1, SVG Export Plug-In . SVG Version: 6.00 Build 0)  -->
<svg version="1.1" id="Layer_1" xmlns="http://www.w3.org/2000/svg" xmlns:xlink="http://www.w3.org/1999/xlink" x="0px" y="0px"
	 viewBox="0 0 196 195.84" style="enable-background:new 0 0 196 195.84;" xml:space="preserve">
<style type="text/css">
	.st0{fill:#F2F2F2;}
	.st1{fill:#FFFFFF;stroke:#323537;stroke-miterlimit:10;}
	.st2{fill:none;stroke:#A3B7D0;stroke-miterlimit:10;}
	.st3{fill:#5E7EA7;}
	.st4{fill:#283D6C;}
</style>
<circle class="st0" cx="97.65" cy="97.72" r="88.66"/>
<circle class="st1" cx="97.39" cy="97.95" r="48.19"/>
<circle class="st2" cx="97.39" cy="97.95" r="14.11"/>
<circle class="st3" cx="97.39" cy="97.95" r="11.84"/>
<path class="st4" d="M138.27,105.92c0,0,28.96-28.95,29.01-28.97l13.38-6.99c0.24-0.12,0.33-0.42,0.2-0.65l-0.89-1.7
	c-0.12-0.24-0.42-0.33-0.65-0.2l-13.7,7.1l-29.15,29.15c-0.03,0.03-10.29,5.96-10.29,5.96c-0.24,0.14-0.55,0.05-0.67-0.2l-1.18-2.39
	c-0.12-0.24-0.41-0.34-0.65-0.22l-17.64,8.74c-0.24,0.12-0.34,0.41-0.22,0.65l4.46,9.02c0.12,0.24,0.41,0.34,0.65,0.22l4.02-1.99
	c0.24-0.12,0.54-0.02,0.65,0.23l1.42,3.01c0.11,0.24,0.4,0.34,0.64,0.23l1.54-0.73c0.24-0.11,0.34-0.4,0.23-0.64l-1.45-3.06
	c-0.11-0.24-0.01-0.52,0.22-0.64l10.37-5.13c0.24-0.12,0.34-0.41,0.22-0.65l-1.56-3.2c-0.11-0.22-0.03-0.49,0.19-0.61L138.27,105.92
	z"/>
<circle class="st0" cx="97.39" cy="97.95" r="2.2"/>
</svg>
