<?xml version="1.0" encoding="utf-8"?>
<!-- Generator: Adobe Illustrator 23.0.1, SVG Export Plug-In . SVG Version: 6.00 Build 0)  -->
<svg version="1.1" id="paint_x5F_can" xmlns="http://www.w3.org/2000/svg" xmlns:xlink="http://www.w3.org/1999/xlink" x="0px"
	 y="0px" viewBox="0 0 205.8 208.8" style="enable-background:new 0 0 205.8 208.8;" xml:space="preserve">
<style type="text/css">
	.st0{fill:#455A72;stroke:#FFFFFF;stroke-miterlimit:10;}
	.st1{fill:none;stroke:#000000;stroke-miterlimit:10;}

	#lines {
		stroke-dasharray: 800;
		stroke-dashoffset: 800;
		-webkit-animation: dash 7s linear forwards;
		animation: dash 7s infinite linear forwards;
	}

	@keyframes dash {
		50% {
			stroke-dashoffset: 0;
		}
		100%{
			stroke-dashoffset: 0;
		}
	}

</style>
<path id="color" class="st0" d="M155.8,78.4c-0.9-2.6-2.6-4.9-4.8-6.5c-5.8-4.2-20.3-12.5-45.6-12.5c-34.1,0-49,8.6-50.8,15
	c-1.9,6.4-6.8,14.2-1.8,17.1s8.5,5.1,8.5,12.2c0,7.1-5.7,37.3,11,37.7c12.6,0.3,13.9-9.7,13.8-14.7c-0.1-5.8,4.7-10.6,10.5-10.6
	c0.1,0,0.2,0,0.3,0c9.9,0.2,8.4,15,8.4,15v28.8c0,0,0.5,4.6,6.2,4.6s5.7-1.4,6.4-4.3c0.7-2.8,0.4-48.3,0.4-48.3s-0.7-6,5.3-6.6
	c6.3-0.6,6.1,6.6,6.1,6.6v14.4c0,0-0.7,5.7,8.2,6.1c0.1,0,0.2,0,0.3,0c5.4,0.1,9.8-4.4,9.6-9.8c-0.2-5.7-0.5-18-0.3-21.2
	c0.2-2.8,4.6-5.8,7.7-7.6c1.9-1.1,2.9-3.2,2.6-5.3C157.5,85.7,156.9,81.8,155.8,78.4z"/>
<path id="lines" class="st1" d="M150.7,51.7c0,0-7-31.9-51.5-31.9c-56.3,0-56.3,57-56.3,57v83.8c0,5.2,2.2,10.2,6.1,13.6
	c6.7,5.9,20.8,12.9,49.6,13.4c37.1,0.6,49.7-11.6,53.8-18.2c1.2-2,1.9-4.4,1.9-6.7V81.1c0,0,3.1-28.5-55.6-27.6
	c-49.9,0.7-54,13.7-54.1,17.5c0,0.7,0,1.4-0.1,2.2c-0.3,4.6,1.8,22.2,54.8,22.5c0,0,37.8,0.8,52.1-13"/>
<g>
</g>
<g>
</g>
<g>
</g>
<g>
</g>
<g>
</g>
<g>
</g>
<g>
</g>
<g>
</g>
<g>
</g>
<g>
</g>
<g>
</g>
<g>
</g>
<g>
</g>
<g>
</g>
<g>
</g>
</svg>
