<?xml version="1.0" encoding="utf-8"?>
<!-- Generator: Adobe Illustrator 23.0.1, SVG Export Plug-In . SVG Version: 6.00 Build 0)  -->
<svg version="1.1" id="Layer_1" xmlns="http://www.w3.org/2000/svg" xmlns:xlink="http://www.w3.org/1999/xlink" x="0px" y="0px"
	 viewBox="0 0 196 195.84" style="enable-background:new 0 0 196 195.84;" xml:space="preserve">
<style type="text/css">
	.st0{fill:#F2F2F2;}
	.st1{fill:#FFFFFF;stroke:#5E7EA7;stroke-miterlimit:10;}
	.st2{fill:#FFFFFF;stroke:#283D6C;stroke-miterlimit:10;}
	.st3{fill:#A3B7D0;}
</style>
<circle class="st0" cx="97.98" cy="98.85" r="88.66"/>
<path class="st1" d="M99.97,50.03c0,0-19.2,17.32-19.83,45.91l39.86-0.21C120.01,95.73,121.88,71.11,99.97,50.03z"/>
<path class="st2" d="M143.48,59c0,0,9.81,27.97,2.71,48.63c-7.1,20.66-43.83,38.61-43.83,38.61l-40.49-34.64
	c0,0-16.49-12.73-3.13-52.8c0,0,26.68,9.54,41.53,45.08C100.28,103.87,108.63,73.4,143.48,59z"/>
<path class="st1" d="M36.93,85.58c0,0-6.37,54.59,52.49,69.12c5.67,1.4,11.64,1.35,17.42,0.47c58.15-8.85,53.61-69.3,53.61-69.3
	s-34.94-7.59-62.26,45.55C98.19,131.42,82.15,83.94,36.93,85.58z"/>
<path class="st3" d="M101.38,88.58c0,0-0.14,8.46,6.47,10.01s11.62,10.16,19.13,27.29c0,0-13.84,0.93-19.01-5.75
	c0,0-1.95,13.48,7.89,20.09c0,0,13.65-6.47,20.11-2.25c-0.07,3.67-4.19,8.12-7.36,11.02c-2.37,2.17-5.3,4.27-8.27,5.49
	c-8.49,3.51-27.64,8.74-46.16-2.79c-11.42-7.11-11.12-13.48-11.12-13.48c7.64-3.93,19.88,2.25,19.88,2.25
	c10.56-7.97,7.86-20.33,7.86-20.33c-7.08,8.31-18.87,5.84-18.87,5.84c8.85-17.69,14.26-27.07,19.65-27.63s6.31-9.82,6.31-9.82
	c-6.32-2.9-5.54-11.64-4.9-15.3c0.19-1.07,0.77-2.06,1.65-2.69c4.71-3.38,8.34-1.44,10.05-0.02c0.71,0.59,1.18,1.4,1.39,2.29
	C108.62,83.76,104.07,87.41,101.38,88.58"/>
</svg>
